# xmcd
#
# Track frame offsets:
#	150
#	25005
#	44112
#	64108
#	81750
#	101912
#	119825
#	139358
#	158054
#	177576
#	193639
#	207361
#	226678
#
# Disc length: 3238 seconds
#
# Revision: 1
# Processed by: cddbd v1.5.2PL0 Copyright (c) Steve Scherf et al.
# Submitted via: audiograbber 1.83.01
#
DISCID=be0ca40d
DTITLE=Hozier - Hozier CD2 [Limited 2CD]
DYEAR=2014
DGENRE=White Soul Rock
TTITLE0=In The Woods Somewhere
TTITLE1=Run
TTITLE2=Arsonist's Lullabye
TTITLE3=My Love Will Never Die
TTITLE4=From Eden (Live)
TTITLE5=Jackie And Wilson (Live)
TTITLE6=Somone New (Live)
TTITLE7=Work Song (Live)
TTITLE8=Take Me To Chusrch (Live)
TTITLE9=Problem - Regulate (BBC Live Session)
TTITLE10=Whole Lotta Love (BBC Live Session)
TTITLE11=Do I Wanna Know (BBC Live Session)
TTITLE12=Lay Me Down (BBC Live Session)
EXTD=
EXTT0=
EXTT1=
EXTT2=
EXTT3=
EXTT4=
EXTT5=
EXTT6=
EXTT7=
EXTT8=
EXTT9=
EXTT10=
EXTT11=
EXTT12=
PLAYORDER=
